<svg width="330.000000" height="307.000000" viewBox="0 0 330 307" fill="none" xmlns="http://www.w3.org/2000/svg" xmlns:xlink="http://www.w3.org/1999/xlink">
	<desc>
			Created with Pixso.
	</desc>
	<defs>
		<clipPath id="clip2_39">
			<rect id="矢量 5 (1)" width="278.999969" height="195.428574" transform="translate(26.000000 55.500000)" fill="white" fill-opacity="0"/>
		</clipPath>
		<clipPath id="clip2_1">
			<rect id="org.lingmoos.Installer-flower" width="330.000000" height="307.000000" fill="white" fill-opacity="0"/>
		</clipPath>
	</defs>
	<g clip-path="url(#clip2_1)">
		<g clip-path="url(#clip2_39)">
			<path id="矢量 5" d="M25.9999 153.214C25.9999 99.2482 69.7482 55.5 123.714 55.5C150.697 55.5 175.126 66.437 192.809 84.1199C200.731 91.9393 211.927 108.224 224.17 127.084C218.609 135.989 213.101 144.847 207.824 153.214C192.964 129.647 179.948 109.972 172.808 104.121C160.244 91.5568 142.886 83.7857 123.714 83.7857C85.3697 83.7857 54.2856 114.87 54.2856 153.214C54.2856 191.558 85.3697 222.643 123.714 222.643C142.886 222.643 160.244 214.872 172.808 202.308C179.948 196.457 192.964 176.782 207.824 153.214C213.101 161.582 218.609 170.44 224.17 179.344C211.927 198.204 200.73 214.489 192.809 222.309C175.126 239.991 150.697 250.929 123.714 250.929C69.7482 250.929 25.9999 207.181 25.9999 153.214ZM224.17 179.344C229.606 170.97 235.247 162.088 240.901 153.214C243.155 156.752 245.41 160.289 247.655 163.792C259.535 182.33 292.786 192.429 305 192.429L305 219.429C283.143 219.429 247.575 208.373 224.17 179.344ZM240.901 153.214C235.247 144.34 229.606 135.458 224.17 127.084C247.575 98.0553 283.143 87 305 87L305 114C292.786 114 259.535 124.099 247.655 142.636C245.41 146.139 243.153 149.676 240.901 153.214Z" fill="#0061FE" fill-opacity="1.000000" fill-rule="evenodd"/>
		</g>
	</g>
</svg>
